<mxfile host="65bd71144e">
    <diagram id="cDjRYbi4MRZomtElbD4I" name="1NF">
        <mxGraphModel dx="1922" dy="1172" grid="1" gridSize="10" guides="1" tooltips="1" connect="1" arrows="1" fold="1" page="0" pageScale="1" pageWidth="827" pageHeight="1169" math="0" shadow="0">
            <root>
                <mxCell id="0"/>
                <mxCell id="1" parent="0"/>
                <mxCell id="2" value="&lt;font style=&quot;font-size: 18px&quot;&gt;Bill&lt;/font&gt;" style="whiteSpace=wrap;html=1;align=center;" parent="1" vertex="1">
                    <mxGeometry x="330" y="360" width="100" height="40" as="geometry"/>
                </mxCell>
                <mxCell id="3" value="&lt;font style=&quot;font-size: 18px&quot;&gt;Booth&lt;/font&gt;" style="whiteSpace=wrap;html=1;align=center;" parent="1" vertex="1">
                    <mxGeometry x="250" y="610" width="100" height="40" as="geometry"/>
                </mxCell>
                <mxCell id="4" value="&lt;font style=&quot;font-size: 18px&quot;&gt;Restaurant&lt;/font&gt;" style="whiteSpace=wrap;html=1;align=center;" parent="1" vertex="1">
                    <mxGeometry x="620" y="100" width="100" height="40" as="geometry"/>
                </mxCell>
                <mxCell id="5" value="&lt;font style=&quot;font-size: 18px&quot;&gt;Dessert&lt;/font&gt;" style="whiteSpace=wrap;html=1;align=center;" parent="1" vertex="1">
                    <mxGeometry x="190" y="140" width="100" height="40" as="geometry"/>
                </mxCell>
                <mxCell id="8" value="contains" style="shape=rhombus;perimeter=rhombusPerimeter;whiteSpace=wrap;html=1;align=center;fontSize=18;" parent="1" vertex="1">
                    <mxGeometry x="180" y="230" width="120" height="60" as="geometry"/>
                </mxCell>
                <mxCell id="9" value="process" style="shape=rhombus;perimeter=rhombusPerimeter;whiteSpace=wrap;html=1;align=center;fontSize=18;" parent="1" vertex="1">
                    <mxGeometry x="525" y="300" width="120" height="60" as="geometry"/>
                </mxCell>
                <mxCell id="11" value="generate" style="shape=rhombus;perimeter=rhombusPerimeter;whiteSpace=wrap;html=1;align=center;fontSize=18;" parent="1" vertex="1">
                    <mxGeometry x="150" y="460" width="120" height="60" as="geometry"/>
                </mxCell>
                <mxCell id="12" value="contains" style="shape=rhombus;perimeter=rhombusPerimeter;whiteSpace=wrap;html=1;align=center;fontSize=18;" parent="1" vertex="1">
                    <mxGeometry x="730" y="480" width="120" height="60" as="geometry"/>
                </mxCell>
                <mxCell id="13" value="&lt;font style=&quot;font-size: 14px&quot;&gt;BillAmount&lt;/font&gt;" style="ellipse;whiteSpace=wrap;html=1;align=center;fontSize=18;" parent="1" vertex="1">
                    <mxGeometry x="330" y="290" width="80" height="40" as="geometry"/>
                </mxCell>
                <mxCell id="14" value="&lt;font style=&quot;font-size: 14px&quot;&gt;&lt;u&gt;&lt;b&gt;Bill_ID&lt;/b&gt;&lt;/u&gt;&lt;/font&gt;" style="ellipse;whiteSpace=wrap;html=1;align=center;fontSize=18;" parent="1" vertex="1">
                    <mxGeometry x="410" y="270" width="80" height="40" as="geometry"/>
                </mxCell>
                <mxCell id="15" value="&lt;font style=&quot;font-size: 14px&quot;&gt;MaxCapacity&lt;/font&gt;" style="ellipse;whiteSpace=wrap;html=1;align=center;fontSize=18;" parent="1" vertex="1">
                    <mxGeometry x="540" y="160" width="90" height="40" as="geometry"/>
                </mxCell>
                <mxCell id="16" value="&lt;font style=&quot;font-size: 14px&quot;&gt;&lt;u&gt;&lt;b&gt;RestaurandID&lt;/b&gt;&lt;/u&gt;&lt;/font&gt;" style="ellipse;whiteSpace=wrap;html=1;align=center;fontSize=18;" parent="1" vertex="1">
                    <mxGeometry x="610" y="10" width="100" height="40" as="geometry"/>
                </mxCell>
                <mxCell id="17" value="&lt;font style=&quot;font-size: 14px&quot;&gt;GranuityAmount&lt;/font&gt;" style="ellipse;whiteSpace=wrap;html=1;align=center;fontSize=18;" parent="1" vertex="1">
                    <mxGeometry x="340" y="450" width="110" height="40" as="geometry"/>
                </mxCell>
                <mxCell id="18" value="&lt;font style=&quot;font-size: 14px&quot;&gt;Bill_Date_time&lt;/font&gt;" style="ellipse;whiteSpace=wrap;html=1;align=center;fontSize=18;" parent="1" vertex="1">
                    <mxGeometry x="470" y="430" width="100" height="40" as="geometry"/>
                </mxCell>
                <mxCell id="20" value="&lt;font style=&quot;font-size: 14px&quot;&gt;DessertPrice&lt;/font&gt;" style="ellipse;whiteSpace=wrap;html=1;align=center;fontSize=18;" parent="1" vertex="1">
                    <mxGeometry x="10" y="40" width="100" height="40" as="geometry"/>
                </mxCell>
                <mxCell id="21" value="&lt;font style=&quot;font-size: 14px&quot;&gt;DessertDescription&lt;/font&gt;" style="ellipse;whiteSpace=wrap;html=1;align=center;fontSize=18;" parent="1" vertex="1">
                    <mxGeometry x="10" y="-40" width="140" height="40" as="geometry"/>
                </mxCell>
                <mxCell id="22" value="&lt;u&gt;&lt;font style=&quot;font-size: 14px&quot;&gt;&lt;b&gt;DessertCode&lt;/b&gt;&lt;/font&gt;&lt;/u&gt;" style="ellipse;whiteSpace=wrap;html=1;align=center;fontSize=18;" parent="1" vertex="1">
                    <mxGeometry x="230" y="10" width="90" height="40" as="geometry"/>
                </mxCell>
                <mxCell id="24" value="&lt;font style=&quot;font-size: 14px&quot;&gt;DessertName&lt;/font&gt;" style="ellipse;whiteSpace=wrap;html=1;align=center;fontSize=18;" parent="1" vertex="1">
                    <mxGeometry x="130" y="10" width="90" height="40" as="geometry"/>
                </mxCell>
                <mxCell id="25" value="" style="endArrow=none;html=1;rounded=0;fontSize=18;entryX=1;entryY=0.5;entryDx=0;entryDy=0;exitX=0;exitY=0.25;exitDx=0;exitDy=0;" parent="1" source="5" target="20" edge="1">
                    <mxGeometry relative="1" as="geometry">
                        <mxPoint x="330" y="340" as="sourcePoint"/>
                        <mxPoint x="490" y="340" as="targetPoint"/>
                    </mxGeometry>
                </mxCell>
                <mxCell id="26" value="" style="endArrow=none;html=1;rounded=0;fontSize=18;entryX=0.5;entryY=1;entryDx=0;entryDy=0;exitX=0.25;exitY=0;exitDx=0;exitDy=0;" parent="1" source="5" target="21" edge="1">
                    <mxGeometry relative="1" as="geometry">
                        <mxPoint x="330" y="340" as="sourcePoint"/>
                        <mxPoint x="490" y="340" as="targetPoint"/>
                    </mxGeometry>
                </mxCell>
                <mxCell id="27" value="" style="endArrow=none;html=1;rounded=0;fontSize=18;entryX=0.5;entryY=1;entryDx=0;entryDy=0;exitX=0.5;exitY=0;exitDx=0;exitDy=0;" parent="1" source="5" target="24" edge="1">
                    <mxGeometry relative="1" as="geometry">
                        <mxPoint x="330" y="340" as="sourcePoint"/>
                        <mxPoint x="490" y="340" as="targetPoint"/>
                    </mxGeometry>
                </mxCell>
                <mxCell id="28" value="" style="endArrow=none;html=1;rounded=0;fontSize=18;entryX=0.5;entryY=1;entryDx=0;entryDy=0;exitX=0.75;exitY=0;exitDx=0;exitDy=0;" parent="1" source="5" target="22" edge="1">
                    <mxGeometry relative="1" as="geometry">
                        <mxPoint x="330" y="340" as="sourcePoint"/>
                        <mxPoint x="490" y="340" as="targetPoint"/>
                    </mxGeometry>
                </mxCell>
                <mxCell id="29" value="&lt;font style=&quot;font-size: 14px&quot;&gt;DessertCategoryName&lt;/font&gt;" style="ellipse;whiteSpace=wrap;html=1;align=center;fontSize=18;" parent="1" vertex="1">
                    <mxGeometry x="10" y="190" width="150" height="40" as="geometry"/>
                </mxCell>
                <mxCell id="31" value="" style="endArrow=none;html=1;rounded=0;fontSize=18;exitX=0.5;exitY=0;exitDx=0;exitDy=0;entryX=0.5;entryY=1;entryDx=0;entryDy=0;" parent="1" source="56lKbNLJOADmkFckRdQh-138" target="160" edge="1">
                    <mxGeometry relative="1" as="geometry">
                        <mxPoint x="450" y="-230" as="sourcePoint"/>
                        <mxPoint x="410" y="-310" as="targetPoint"/>
                    </mxGeometry>
                </mxCell>
                <mxCell id="32" value="" style="endArrow=none;html=1;rounded=0;fontSize=18;entryX=1;entryY=0.5;entryDx=0;entryDy=0;exitX=0;exitY=0.5;exitDx=0;exitDy=0;" parent="1" source="5" target="181" edge="1">
                    <mxGeometry relative="1" as="geometry">
                        <mxPoint x="190" y="350" as="sourcePoint"/>
                        <mxPoint x="-80" y="170" as="targetPoint"/>
                    </mxGeometry>
                </mxCell>
                <mxCell id="148" value="1" style="edgeLabel;html=1;align=center;verticalAlign=middle;resizable=0;points=[];" parent="32" vertex="1" connectable="0">
                    <mxGeometry x="0.547" y="3" relative="1" as="geometry">
                        <mxPoint as="offset"/>
                    </mxGeometry>
                </mxCell>
                <mxCell id="33" value="" style="endArrow=none;html=1;rounded=0;fontSize=18;exitX=0;exitY=1;exitDx=0;exitDy=0;entryX=0.933;entryY=0.25;entryDx=0;entryDy=0;entryPerimeter=0;" parent="1" source="5" target="29" edge="1">
                    <mxGeometry relative="1" as="geometry">
                        <mxPoint x="150" y="360" as="sourcePoint"/>
                        <mxPoint x="160" y="200" as="targetPoint"/>
                    </mxGeometry>
                </mxCell>
                <mxCell id="34" value="" style="endArrow=none;html=1;rounded=0;fontSize=18;entryX=1;entryY=0.5;entryDx=0;entryDy=0;" parent="1" edge="1">
                    <mxGeometry relative="1" as="geometry">
                        <mxPoint x="190" y="150" as="sourcePoint"/>
                        <mxPoint x="-20" y="80" as="targetPoint"/>
                    </mxGeometry>
                </mxCell>
                <mxCell id="162" value="1" style="edgeLabel;html=1;align=center;verticalAlign=middle;resizable=0;points=[];" vertex="1" connectable="0" parent="34">
                    <mxGeometry x="0.469" y="3" relative="1" as="geometry">
                        <mxPoint y="1" as="offset"/>
                    </mxGeometry>
                </mxCell>
                <mxCell id="35" value="&lt;font style=&quot;font-size: 14px&quot;&gt;RegionName&lt;/font&gt;" style="ellipse;whiteSpace=wrap;html=1;align=center;fontSize=18;" parent="1" vertex="1">
                    <mxGeometry x="850" y="120" width="90" height="40" as="geometry"/>
                </mxCell>
                <mxCell id="39" value="&lt;font style=&quot;font-size: 14px&quot;&gt;RegionCode&lt;/font&gt;" style="ellipse;whiteSpace=wrap;html=1;align=center;fontSize=18;" parent="1" vertex="1">
                    <mxGeometry x="840" y="220" width="90" height="40" as="geometry"/>
                </mxCell>
                <mxCell id="42" value="" style="endArrow=none;html=1;rounded=0;fontSize=18;entryX=0;entryY=0;entryDx=0;entryDy=0;exitX=1;exitY=0.75;exitDx=0;exitDy=0;" parent="1" source="4" target="39" edge="1">
                    <mxGeometry relative="1" as="geometry">
                        <mxPoint x="1000" y="180" as="sourcePoint"/>
                        <mxPoint x="470" y="80" as="targetPoint"/>
                        <Array as="points"/>
                    </mxGeometry>
                </mxCell>
                <mxCell id="43" value="" style="endArrow=none;html=1;rounded=0;fontSize=18;entryX=0;entryY=0.5;entryDx=0;entryDy=0;exitX=1;exitY=0.25;exitDx=0;exitDy=0;" parent="1" source="4" target="35" edge="1">
                    <mxGeometry relative="1" as="geometry">
                        <mxPoint x="1050" y="160" as="sourcePoint"/>
                        <mxPoint x="480" y="90" as="targetPoint"/>
                    </mxGeometry>
                </mxCell>
                <mxCell id="45" value="" style="endArrow=none;html=1;rounded=0;fontSize=14;entryX=0.073;entryY=1.029;entryDx=0;entryDy=0;exitX=0.5;exitY=0;exitDx=0;exitDy=0;entryPerimeter=0;" parent="1" source="15" target="4" edge="1">
                    <mxGeometry relative="1" as="geometry">
                        <mxPoint x="330" y="340" as="sourcePoint"/>
                        <mxPoint x="490" y="340" as="targetPoint"/>
                    </mxGeometry>
                </mxCell>
                <mxCell id="46" value="" style="endArrow=none;html=1;rounded=0;fontSize=14;entryX=0.5;entryY=1;entryDx=0;entryDy=0;exitX=0.25;exitY=0;exitDx=0;exitDy=0;" parent="1" source="4" target="16" edge="1">
                    <mxGeometry relative="1" as="geometry">
                        <mxPoint x="330" y="340" as="sourcePoint"/>
                        <mxPoint x="490" y="340" as="targetPoint"/>
                    </mxGeometry>
                </mxCell>
                <mxCell id="48" value="" style="endArrow=none;html=1;rounded=0;fontSize=14;exitX=0;exitY=0.25;exitDx=0;exitDy=0;entryX=0.5;entryY=1;entryDx=0;entryDy=0;" parent="1" source="4" target="56lKbNLJOADmkFckRdQh-140" edge="1">
                    <mxGeometry relative="1" as="geometry">
                        <mxPoint x="330" y="340" as="sourcePoint"/>
                        <mxPoint x="520" y="-50" as="targetPoint"/>
                    </mxGeometry>
                </mxCell>
                <mxCell id="49" value="N" style="resizable=0;html=1;align=right;verticalAlign=bottom;fontSize=14;" parent="48" connectable="0" vertex="1">
                    <mxGeometry x="1" relative="1" as="geometry">
                        <mxPoint x="10" y="-10" as="offset"/>
                    </mxGeometry>
                </mxCell>
                <mxCell id="50" value="" style="endArrow=none;html=1;rounded=0;fontSize=14;exitX=1;exitY=0.5;exitDx=0;exitDy=0;entryX=0.5;entryY=1;entryDx=0;entryDy=0;" parent="1" source="5" target="56lKbNLJOADmkFckRdQh-139" edge="1">
                    <mxGeometry relative="1" as="geometry">
                        <mxPoint x="330" y="340" as="sourcePoint"/>
                        <mxPoint x="360" y="-60" as="targetPoint"/>
                    </mxGeometry>
                </mxCell>
                <mxCell id="51" value="1" style="resizable=0;html=1;align=right;verticalAlign=bottom;fontSize=14;" parent="50" connectable="0" vertex="1">
                    <mxGeometry x="1" relative="1" as="geometry">
                        <mxPoint x="-9" as="offset"/>
                    </mxGeometry>
                </mxCell>
                <mxCell id="52" value="" style="endArrow=none;html=1;rounded=0;fontSize=14;entryX=1;entryY=0.5;entryDx=0;entryDy=0;exitX=0.25;exitY=1;exitDx=0;exitDy=0;" parent="1" source="4" target="9" edge="1">
                    <mxGeometry relative="1" as="geometry">
                        <mxPoint x="330" y="340" as="sourcePoint"/>
                        <mxPoint x="490" y="340" as="targetPoint"/>
                    </mxGeometry>
                </mxCell>
                <mxCell id="53" value="1" style="resizable=0;html=1;align=right;verticalAlign=bottom;fontSize=14;" parent="52" connectable="0" vertex="1">
                    <mxGeometry x="1" relative="1" as="geometry">
                        <mxPoint x="-10" y="-10" as="offset"/>
                    </mxGeometry>
                </mxCell>
                <mxCell id="54" value="" style="endArrow=none;html=1;rounded=0;fontSize=14;entryX=0;entryY=0.5;entryDx=0;entryDy=0;exitX=1;exitY=0.5;exitDx=0;exitDy=0;" parent="1" source="2" target="9" edge="1">
                    <mxGeometry relative="1" as="geometry">
                        <mxPoint x="330" y="340" as="sourcePoint"/>
                        <mxPoint x="490" y="340" as="targetPoint"/>
                    </mxGeometry>
                </mxCell>
                <mxCell id="55" value="N" style="resizable=0;html=1;align=right;verticalAlign=bottom;fontSize=14;" parent="54" connectable="0" vertex="1">
                    <mxGeometry x="1" relative="1" as="geometry"/>
                </mxCell>
                <mxCell id="56" value="" style="endArrow=none;html=1;rounded=0;fontSize=14;entryX=0.5;entryY=0;entryDx=0;entryDy=0;exitX=0.5;exitY=1;exitDx=0;exitDy=0;" parent="1" source="5" target="8" edge="1">
                    <mxGeometry relative="1" as="geometry">
                        <mxPoint x="655" y="150" as="sourcePoint"/>
                        <mxPoint x="650" y="320" as="targetPoint"/>
                    </mxGeometry>
                </mxCell>
                <mxCell id="57" value="1" style="resizable=0;html=1;align=right;verticalAlign=bottom;fontSize=14;" parent="56" connectable="0" vertex="1">
                    <mxGeometry x="1" relative="1" as="geometry">
                        <mxPoint x="20" as="offset"/>
                    </mxGeometry>
                </mxCell>
                <mxCell id="58" value="" style="endArrow=none;html=1;rounded=0;fontSize=14;entryX=0.5;entryY=1;entryDx=0;entryDy=0;exitX=0;exitY=0.5;exitDx=0;exitDy=0;" parent="1" source="2" target="8" edge="1">
                    <mxGeometry relative="1" as="geometry">
                        <mxPoint x="430" y="320" as="sourcePoint"/>
                        <mxPoint x="530" y="320" as="targetPoint"/>
                    </mxGeometry>
                </mxCell>
                <mxCell id="59" value="M" style="resizable=0;html=1;align=right;verticalAlign=bottom;fontSize=14;" parent="58" connectable="0" vertex="1">
                    <mxGeometry x="1" relative="1" as="geometry">
                        <mxPoint x="40" y="10" as="offset"/>
                    </mxGeometry>
                </mxCell>
                <mxCell id="60" value="" style="endArrow=none;html=1;rounded=0;fontSize=14;entryX=0.5;entryY=1;entryDx=0;entryDy=0;" parent="1" source="2" target="13" edge="1">
                    <mxGeometry relative="1" as="geometry">
                        <mxPoint x="330" y="500" as="sourcePoint"/>
                        <mxPoint x="490" y="500" as="targetPoint"/>
                    </mxGeometry>
                </mxCell>
                <mxCell id="61" value="" style="endArrow=none;html=1;rounded=0;fontSize=14;entryX=0.5;entryY=1;entryDx=0;entryDy=0;exitX=0.75;exitY=0;exitDx=0;exitDy=0;" parent="1" source="2" target="14" edge="1">
                    <mxGeometry relative="1" as="geometry">
                        <mxPoint x="330" y="500" as="sourcePoint"/>
                        <mxPoint x="490" y="500" as="targetPoint"/>
                    </mxGeometry>
                </mxCell>
                <mxCell id="62" value="" style="endArrow=none;html=1;rounded=0;fontSize=14;entryX=0.5;entryY=1;entryDx=0;entryDy=0;exitX=0.5;exitY=0;exitDx=0;exitDy=0;" parent="1" source="17" target="2" edge="1">
                    <mxGeometry relative="1" as="geometry">
                        <mxPoint x="330" y="500" as="sourcePoint"/>
                        <mxPoint x="490" y="500" as="targetPoint"/>
                    </mxGeometry>
                </mxCell>
                <mxCell id="63" value="" style="endArrow=none;html=1;rounded=0;fontSize=14;entryX=0.5;entryY=0;entryDx=0;entryDy=0;exitX=0.75;exitY=1;exitDx=0;exitDy=0;" parent="1" source="2" target="18" edge="1">
                    <mxGeometry relative="1" as="geometry">
                        <mxPoint x="330" y="500" as="sourcePoint"/>
                        <mxPoint x="490" y="500" as="targetPoint"/>
                    </mxGeometry>
                </mxCell>
                <mxCell id="64" value="" style="endArrow=none;html=1;rounded=0;fontSize=14;" parent="1" target="12" edge="1">
                    <mxGeometry relative="1" as="geometry">
                        <mxPoint x="660" y="140" as="sourcePoint"/>
                        <mxPoint x="650" y="320" as="targetPoint"/>
                        <Array as="points"/>
                    </mxGeometry>
                </mxCell>
                <mxCell id="65" value="1" style="resizable=0;html=1;align=right;verticalAlign=bottom;fontSize=14;" parent="64" connectable="0" vertex="1">
                    <mxGeometry x="1" relative="1" as="geometry">
                        <mxPoint x="-10" y="-10" as="offset"/>
                    </mxGeometry>
                </mxCell>
                <mxCell id="67" value="" style="endArrow=none;html=1;rounded=0;fontSize=14;entryX=0.5;entryY=1;entryDx=0;entryDy=0;exitX=1;exitY=0.5;exitDx=0;exitDy=0;" parent="1" source="3" target="12" edge="1">
                    <mxGeometry relative="1" as="geometry">
                        <mxPoint x="424" y="350" as="sourcePoint"/>
                        <mxPoint x="530" y="320" as="targetPoint"/>
                        <Array as="points">
                            <mxPoint x="500" y="610"/>
                        </Array>
                    </mxGeometry>
                </mxCell>
                <mxCell id="68" value="N" style="resizable=0;html=1;align=right;verticalAlign=bottom;fontSize=14;" parent="67" connectable="0" vertex="1">
                    <mxGeometry x="1" relative="1" as="geometry">
                        <mxPoint x="-30" y="10" as="offset"/>
                    </mxGeometry>
                </mxCell>
                <mxCell id="69" value="" style="endArrow=none;html=1;rounded=0;fontSize=14;exitX=0;exitY=0.75;exitDx=0;exitDy=0;entryX=0.5;entryY=0;entryDx=0;entryDy=0;" parent="1" source="2" target="11" edge="1">
                    <mxGeometry relative="1" as="geometry">
                        <mxPoint x="670" y="150" as="sourcePoint"/>
                        <mxPoint x="688.3333333333333" y="470.83333333333326" as="targetPoint"/>
                        <Array as="points"/>
                    </mxGeometry>
                </mxCell>
                <mxCell id="70" value="M" style="resizable=0;html=1;align=right;verticalAlign=bottom;fontSize=14;" parent="69" connectable="0" vertex="1">
                    <mxGeometry x="1" relative="1" as="geometry">
                        <mxPoint x="10" y="-10" as="offset"/>
                    </mxGeometry>
                </mxCell>
                <mxCell id="71" value="" style="endArrow=none;html=1;rounded=0;fontSize=14;entryX=0.5;entryY=1;entryDx=0;entryDy=0;exitX=0.5;exitY=0;exitDx=0;exitDy=0;" parent="1" source="3" target="11" edge="1">
                    <mxGeometry relative="1" as="geometry">
                        <mxPoint x="680" y="160" as="sourcePoint"/>
                        <mxPoint x="698.3333333333333" y="480.83333333333326" as="targetPoint"/>
                        <Array as="points"/>
                    </mxGeometry>
                </mxCell>
                <mxCell id="72" value="1" style="resizable=0;html=1;align=right;verticalAlign=bottom;fontSize=14;" parent="71" connectable="0" vertex="1">
                    <mxGeometry x="1" relative="1" as="geometry">
                        <mxPoint x="-10" y="20" as="offset"/>
                    </mxGeometry>
                </mxCell>
                <mxCell id="73" value="&lt;font style=&quot;font-size: 14px&quot;&gt;&lt;b&gt;&lt;u&gt;BoothCode&lt;/u&gt;&lt;/b&gt;&lt;/font&gt;" style="ellipse;whiteSpace=wrap;html=1;align=center;fontSize=18;" parent="1" vertex="1">
                    <mxGeometry x="175" y="720" width="115" height="40" as="geometry"/>
                </mxCell>
                <mxCell id="74" value="&lt;font style=&quot;font-size: 14px&quot;&gt;BoothCapacity&lt;/font&gt;" style="ellipse;whiteSpace=wrap;html=1;align=center;fontSize=18;" parent="1" vertex="1">
                    <mxGeometry x="300" y="710" width="100" height="40" as="geometry"/>
                </mxCell>
                <mxCell id="75" value="&lt;font style=&quot;font-size: 14px&quot;&gt;SmokingSectionIndicator&lt;/font&gt;" style="ellipse;whiteSpace=wrap;html=1;align=center;fontSize=18;" parent="1" vertex="1">
                    <mxGeometry x="410" y="660" width="180" height="40" as="geometry"/>
                </mxCell>
                <mxCell id="76" value="&lt;font style=&quot;font-size: 14px&quot;&gt;BoothTypeCode&lt;/font&gt;" style="ellipse;whiteSpace=wrap;html=1;align=center;fontSize=18;" parent="1" vertex="1">
                    <mxGeometry x="-10" y="680" width="110" height="40" as="geometry"/>
                </mxCell>
                <mxCell id="77" value="&lt;font style=&quot;font-size: 14px&quot;&gt;BoothTypeText&lt;/font&gt;" style="ellipse;whiteSpace=wrap;html=1;align=center;fontSize=18;" parent="1" vertex="1">
                    <mxGeometry x="-20" y="590" width="100" height="40" as="geometry"/>
                </mxCell>
                <mxCell id="78" value="" style="endArrow=none;html=1;rounded=0;fontSize=14;entryX=0;entryY=0.5;entryDx=0;entryDy=0;exitX=1;exitY=0.75;exitDx=0;exitDy=0;" parent="1" source="3" target="75" edge="1">
                    <mxGeometry relative="1" as="geometry">
                        <mxPoint x="460" y="500" as="sourcePoint"/>
                        <mxPoint x="620" y="500" as="targetPoint"/>
                    </mxGeometry>
                </mxCell>
                <mxCell id="79" value="" style="endArrow=none;html=1;rounded=0;fontSize=14;entryX=0.5;entryY=0;entryDx=0;entryDy=0;exitX=0.5;exitY=1;exitDx=0;exitDy=0;" parent="1" source="3" target="74" edge="1">
                    <mxGeometry relative="1" as="geometry">
                        <mxPoint x="460" y="500" as="sourcePoint"/>
                        <mxPoint x="620" y="500" as="targetPoint"/>
                    </mxGeometry>
                </mxCell>
                <mxCell id="80" value="" style="endArrow=none;html=1;rounded=0;fontSize=14;entryX=0.5;entryY=0;entryDx=0;entryDy=0;exitX=0.25;exitY=1;exitDx=0;exitDy=0;" parent="1" source="3" target="73" edge="1">
                    <mxGeometry relative="1" as="geometry">
                        <mxPoint x="460" y="500" as="sourcePoint"/>
                        <mxPoint x="620" y="500" as="targetPoint"/>
                    </mxGeometry>
                </mxCell>
                <mxCell id="81" value="" style="endArrow=none;html=1;rounded=0;fontSize=14;entryX=0;entryY=0.75;entryDx=0;entryDy=0;" parent="1" source="76" target="3" edge="1">
                    <mxGeometry relative="1" as="geometry">
                        <mxPoint x="460" y="500" as="sourcePoint"/>
                        <mxPoint y="720" as="targetPoint"/>
                    </mxGeometry>
                </mxCell>
                <mxCell id="82" value="" style="endArrow=none;html=1;rounded=0;fontSize=14;exitX=1;exitY=0.5;exitDx=0;exitDy=0;entryX=0;entryY=0.5;entryDx=0;entryDy=0;" parent="1" source="77" target="3" edge="1">
                    <mxGeometry relative="1" as="geometry">
                        <mxPoint x="460" y="500" as="sourcePoint"/>
                        <mxPoint y="680" as="targetPoint"/>
                    </mxGeometry>
                </mxCell>
                <mxCell id="83" value="Owner" style="whiteSpace=wrap;html=1;align=center;" parent="1" vertex="1">
                    <mxGeometry x="1150" y="-30" width="100" height="40" as="geometry"/>
                </mxCell>
                <mxCell id="90" value="owener_id" style="ellipse;whiteSpace=wrap;html=1;align=center;fontStyle=4;" parent="1" vertex="1">
                    <mxGeometry x="1150" y="-140" width="100" height="40" as="geometry"/>
                </mxCell>
                <mxCell id="91" value="owner_name" style="ellipse;whiteSpace=wrap;html=1;align=center;" parent="1" vertex="1">
                    <mxGeometry x="1300" y="-30" width="100" height="40" as="geometry"/>
                </mxCell>
                <mxCell id="93" value="" style="endArrow=none;html=1;rounded=0;exitX=0.5;exitY=1;exitDx=0;exitDy=0;entryX=0.5;entryY=0;entryDx=0;entryDy=0;" parent="1" source="90" target="83" edge="1">
                    <mxGeometry relative="1" as="geometry">
                        <mxPoint x="1170" y="140" as="sourcePoint"/>
                        <mxPoint x="1330" y="140" as="targetPoint"/>
                    </mxGeometry>
                </mxCell>
                <mxCell id="94" value="" style="endArrow=none;html=1;rounded=0;exitX=0;exitY=0.5;exitDx=0;exitDy=0;entryX=1;entryY=0.5;entryDx=0;entryDy=0;" parent="1" source="91" target="83" edge="1">
                    <mxGeometry relative="1" as="geometry">
                        <mxPoint x="540" y="-190" as="sourcePoint"/>
                        <mxPoint x="700" y="-190" as="targetPoint"/>
                    </mxGeometry>
                </mxCell>
                <mxCell id="102" value="has" style="shape=rhombus;double=1;perimeter=rhombusPerimeter;whiteSpace=wrap;html=1;align=center;" parent="1" vertex="1">
                    <mxGeometry x="730" y="-20" width="120" height="60" as="geometry"/>
                </mxCell>
                <mxCell id="103" value="has" style="shape=rhombus;double=1;perimeter=rhombusPerimeter;whiteSpace=wrap;html=1;align=center;" parent="1" vertex="1">
                    <mxGeometry x="990" y="-40" width="120" height="60" as="geometry"/>
                </mxCell>
                <mxCell id="104" value="has_owner" style="shape=ext;margin=3;double=1;whiteSpace=wrap;html=1;align=center;" parent="1" vertex="1">
                    <mxGeometry x="850" y="-70" width="100" height="40" as="geometry"/>
                </mxCell>
                <mxCell id="105" value="" style="endArrow=none;html=1;rounded=0;exitX=1;exitY=0;exitDx=0;exitDy=0;entryX=0;entryY=0.5;entryDx=0;entryDy=0;" parent="1" source="4" target="102" edge="1">
                    <mxGeometry relative="1" as="geometry">
                        <mxPoint x="750" y="80" as="sourcePoint"/>
                        <mxPoint x="910" y="80" as="targetPoint"/>
                    </mxGeometry>
                </mxCell>
                <mxCell id="109" value="" style="endArrow=none;html=1;rounded=0;entryX=0;entryY=0.5;entryDx=0;entryDy=0;exitX=1;exitY=0.5;exitDx=0;exitDy=0;" parent="1" source="103" target="83" edge="1">
                    <mxGeometry relative="1" as="geometry">
                        <mxPoint x="660" y="190" as="sourcePoint"/>
                        <mxPoint x="820" y="190" as="targetPoint"/>
                    </mxGeometry>
                </mxCell>
                <mxCell id="110" value="" style="shape=link;html=1;rounded=0;exitX=1;exitY=0.5;exitDx=0;exitDy=0;entryX=0;entryY=1;entryDx=0;entryDy=0;" parent="1" source="102" target="104" edge="1">
                    <mxGeometry relative="1" as="geometry">
                        <mxPoint x="930" y="50" as="sourcePoint"/>
                        <mxPoint x="1090" y="50" as="targetPoint"/>
                    </mxGeometry>
                </mxCell>
                <mxCell id="111" value="N" style="resizable=0;html=1;align=right;verticalAlign=bottom;" parent="110" connectable="0" vertex="1">
                    <mxGeometry x="1" relative="1" as="geometry"/>
                </mxCell>
                <mxCell id="112" value="" style="shape=link;html=1;rounded=0;exitX=1;exitY=0;exitDx=0;exitDy=0;entryX=0;entryY=0.5;entryDx=0;entryDy=0;" parent="1" source="104" target="103" edge="1">
                    <mxGeometry relative="1" as="geometry">
                        <mxPoint x="990" y="30" as="sourcePoint"/>
                        <mxPoint x="1150" y="30" as="targetPoint"/>
                    </mxGeometry>
                </mxCell>
                <mxCell id="113" value="N" style="resizable=0;html=1;align=right;verticalAlign=bottom;" parent="112" connectable="0" vertex="1">
                    <mxGeometry x="1" relative="1" as="geometry"/>
                </mxCell>
                <mxCell id="114" value="1" style="text;html=1;align=center;verticalAlign=middle;resizable=0;points=[];autosize=1;strokeColor=none;fillColor=none;" parent="1" vertex="1">
                    <mxGeometry x="1120" y="-40" width="20" height="20" as="geometry"/>
                </mxCell>
                <mxCell id="115" value="1" style="text;html=1;align=center;verticalAlign=middle;resizable=0;points=[];autosize=1;strokeColor=none;fillColor=none;" parent="1" vertex="1">
                    <mxGeometry x="700" y="50" width="20" height="20" as="geometry"/>
                </mxCell>
                <mxCell id="56lKbNLJOADmkFckRdQh-138" value="dessert_offer" style="shape=ext;margin=3;double=1;whiteSpace=wrap;html=1;align=center;" parent="1" vertex="1">
                    <mxGeometry x="400" y="-230" width="100" height="40" as="geometry"/>
                </mxCell>
                <mxCell id="56lKbNLJOADmkFckRdQh-139" value="has" style="shape=rhombus;double=1;perimeter=rhombusPerimeter;whiteSpace=wrap;html=1;align=center;" parent="1" vertex="1">
                    <mxGeometry x="310" y="-140" width="120" height="60" as="geometry"/>
                </mxCell>
                <mxCell id="56lKbNLJOADmkFckRdQh-140" value="has" style="shape=rhombus;double=1;perimeter=rhombusPerimeter;whiteSpace=wrap;html=1;align=center;" parent="1" vertex="1">
                    <mxGeometry x="480" y="-150" width="120" height="60" as="geometry"/>
                </mxCell>
                <mxCell id="56lKbNLJOADmkFckRdQh-141" value="1" style="text;html=1;align=center;verticalAlign=middle;resizable=0;points=[];autosize=1;strokeColor=none;fillColor=none;" parent="1" vertex="1">
                    <mxGeometry x="380" y="-70" width="20" height="20" as="geometry"/>
                </mxCell>
                <mxCell id="56lKbNLJOADmkFckRdQh-142" value="1" style="text;html=1;align=center;verticalAlign=middle;resizable=0;points=[];autosize=1;strokeColor=none;fillColor=none;" parent="1" vertex="1">
                    <mxGeometry x="530" y="-70" width="20" height="20" as="geometry"/>
                </mxCell>
                <mxCell id="56lKbNLJOADmkFckRdQh-143" value="" style="shape=link;html=1;rounded=0;exitX=0.5;exitY=0;exitDx=0;exitDy=0;entryX=0;entryY=1;entryDx=0;entryDy=0;" parent="1" source="56lKbNLJOADmkFckRdQh-139" target="56lKbNLJOADmkFckRdQh-138" edge="1">
                    <mxGeometry relative="1" as="geometry">
                        <mxPoint x="460" y="-20" as="sourcePoint"/>
                        <mxPoint x="620" y="-20" as="targetPoint"/>
                    </mxGeometry>
                </mxCell>
                <mxCell id="56lKbNLJOADmkFckRdQh-144" value="N" style="resizable=0;html=1;align=right;verticalAlign=bottom;" parent="56lKbNLJOADmkFckRdQh-143" connectable="0" vertex="1">
                    <mxGeometry x="1" relative="1" as="geometry"/>
                </mxCell>
                <mxCell id="56lKbNLJOADmkFckRdQh-145" value="" style="shape=link;html=1;rounded=0;exitX=0.5;exitY=0;exitDx=0;exitDy=0;entryX=1;entryY=1;entryDx=0;entryDy=0;" parent="1" source="56lKbNLJOADmkFckRdQh-140" target="56lKbNLJOADmkFckRdQh-138" edge="1">
                    <mxGeometry relative="1" as="geometry">
                        <mxPoint x="450" y="10" as="sourcePoint"/>
                        <mxPoint x="610" y="10" as="targetPoint"/>
                    </mxGeometry>
                </mxCell>
                <mxCell id="56lKbNLJOADmkFckRdQh-146" value="N" style="resizable=0;html=1;align=right;verticalAlign=bottom;" parent="56lKbNLJOADmkFckRdQh-145" connectable="0" vertex="1">
                    <mxGeometry x="1" relative="1" as="geometry">
                        <mxPoint x="20" y="10" as="offset"/>
                    </mxGeometry>
                </mxCell>
                <mxCell id="142" value="topping" style="whiteSpace=wrap;html=1;align=center;" parent="1" vertex="1">
                    <mxGeometry x="-410" y="150" width="100" height="40" as="geometry"/>
                </mxCell>
                <mxCell id="143" value="" style="endArrow=none;html=1;rounded=0;exitX=1;exitY=0.5;exitDx=0;exitDy=0;entryX=0;entryY=0.5;entryDx=0;entryDy=0;" parent="1" source="142" target="180" edge="1">
                    <mxGeometry relative="1" as="geometry">
                        <mxPoint x="-160" y="260" as="sourcePoint"/>
                        <mxPoint x="-290" y="200" as="targetPoint"/>
                    </mxGeometry>
                </mxCell>
                <mxCell id="144" value="&lt;u&gt;topping_id&lt;/u&gt;" style="ellipse;whiteSpace=wrap;html=1;align=center;" parent="1" vertex="1">
                    <mxGeometry x="-490" y="220" width="100" height="40" as="geometry"/>
                </mxCell>
                <mxCell id="145" value="topping_name" style="ellipse;whiteSpace=wrap;html=1;align=center;" parent="1" vertex="1">
                    <mxGeometry x="-590" y="160" width="100" height="40" as="geometry"/>
                </mxCell>
                <mxCell id="146" value="" style="endArrow=none;html=1;rounded=0;exitX=0;exitY=0.5;exitDx=0;exitDy=0;entryX=1;entryY=0.5;entryDx=0;entryDy=0;" parent="1" source="142" target="145" edge="1">
                    <mxGeometry relative="1" as="geometry">
                        <mxPoint x="-460" y="40" as="sourcePoint"/>
                        <mxPoint x="-300" y="40" as="targetPoint"/>
                    </mxGeometry>
                </mxCell>
                <mxCell id="150" value="drink" style="whiteSpace=wrap;html=1;align=center;" parent="1" vertex="1">
                    <mxGeometry x="-490" y="10" width="100" height="40" as="geometry"/>
                </mxCell>
                <mxCell id="151" value="Drink_name" style="ellipse;whiteSpace=wrap;html=1;align=center;" parent="1" vertex="1">
                    <mxGeometry x="-440" y="-110" width="100" height="40" as="geometry"/>
                </mxCell>
                <mxCell id="152" value="" style="endArrow=none;html=1;rounded=0;exitX=0.5;exitY=1;exitDx=0;exitDy=0;entryX=0.5;entryY=0;entryDx=0;entryDy=0;" parent="1" source="142" target="144" edge="1">
                    <mxGeometry relative="1" as="geometry">
                        <mxPoint x="-500" y="240" as="sourcePoint"/>
                        <mxPoint x="-340" y="240" as="targetPoint"/>
                    </mxGeometry>
                </mxCell>
                <mxCell id="153" value="Drink_ID" style="ellipse;whiteSpace=wrap;html=1;align=center;fontStyle=4;" parent="1" vertex="1">
                    <mxGeometry x="-620" y="-30" width="100" height="40" as="geometry"/>
                </mxCell>
                <mxCell id="154" value="" style="endArrow=none;html=1;rounded=0;exitX=0.5;exitY=0;exitDx=0;exitDy=0;entryX=0.5;entryY=1;entryDx=0;entryDy=0;" parent="1" source="150" target="151" edge="1">
                    <mxGeometry relative="1" as="geometry">
                        <mxPoint x="-500" y="30" as="sourcePoint"/>
                        <mxPoint x="-340" y="30" as="targetPoint"/>
                    </mxGeometry>
                </mxCell>
                <mxCell id="155" value="" style="endArrow=none;html=1;rounded=0;exitX=1;exitY=0.5;exitDx=0;exitDy=0;entryX=0;entryY=0.5;entryDx=0;entryDy=0;" parent="1" source="153" target="150" edge="1">
                    <mxGeometry relative="1" as="geometry">
                        <mxPoint x="-260" y="130" as="sourcePoint"/>
                        <mxPoint x="-100" y="130" as="targetPoint"/>
                    </mxGeometry>
                </mxCell>
                <mxCell id="159" value="" style="endArrow=none;html=1;rounded=0;exitX=0.6;exitY=0;exitDx=0;exitDy=0;exitPerimeter=0;entryX=0.5;entryY=1;entryDx=0;entryDy=0;" parent="1" source="56lKbNLJOADmkFckRdQh-138" target="161" edge="1">
                    <mxGeometry relative="1" as="geometry">
                        <mxPoint x="470" y="-290" as="sourcePoint"/>
                        <mxPoint x="510" y="-300" as="targetPoint"/>
                    </mxGeometry>
                </mxCell>
                <mxCell id="160" value="date_start" style="ellipse;whiteSpace=wrap;html=1;align=center;" parent="1" vertex="1">
                    <mxGeometry x="350" y="-350" width="90" height="30" as="geometry"/>
                </mxCell>
                <mxCell id="161" value="date_end" style="ellipse;whiteSpace=wrap;html=1;align=center;" parent="1" vertex="1">
                    <mxGeometry x="480" y="-350" width="100" height="40" as="geometry"/>
                </mxCell>
                <mxCell id="165" value="" style="shape=link;html=1;rounded=0;exitX=0;exitY=0.5;exitDx=0;exitDy=0;entryX=1;entryY=0.5;entryDx=0;entryDy=0;" edge="1" parent="1" source="170" target="167">
                    <mxGeometry relative="1" as="geometry">
                        <mxPoint x="-140" y="80" as="sourcePoint"/>
                        <mxPoint x="-210" y="30" as="targetPoint"/>
                    </mxGeometry>
                </mxCell>
                <mxCell id="166" value="N" style="resizable=0;html=1;align=right;verticalAlign=bottom;" connectable="0" vertex="1" parent="165">
                    <mxGeometry x="1" relative="1" as="geometry"/>
                </mxCell>
                <mxCell id="168" value="N" style="edgeLabel;html=1;align=center;verticalAlign=middle;resizable=0;points=[];" vertex="1" connectable="0" parent="165">
                    <mxGeometry x="0.1719" y="-1" relative="1" as="geometry">
                        <mxPoint as="offset"/>
                    </mxGeometry>
                </mxCell>
                <mxCell id="167" value="Drinkdessert" style="shape=ext;margin=3;double=1;whiteSpace=wrap;html=1;align=center;" vertex="1" parent="1">
                    <mxGeometry x="-260" y="-40" width="100" height="40" as="geometry"/>
                </mxCell>
                <mxCell id="169" value="has" style="shape=rhombus;double=1;perimeter=rhombusPerimeter;whiteSpace=wrap;html=1;align=center;" vertex="1" parent="1">
                    <mxGeometry x="-340" y="30" width="120" height="60" as="geometry"/>
                </mxCell>
                <mxCell id="170" value="has" style="shape=rhombus;double=1;perimeter=rhombusPerimeter;whiteSpace=wrap;html=1;align=center;" vertex="1" parent="1">
                    <mxGeometry x="-140" y="40" width="120" height="60" as="geometry"/>
                </mxCell>
                <mxCell id="171" value="" style="shape=link;html=1;rounded=0;exitX=0.5;exitY=0;exitDx=0;exitDy=0;entryX=0;entryY=1;entryDx=0;entryDy=0;" edge="1" parent="1" source="169" target="167">
                    <mxGeometry relative="1" as="geometry">
                        <mxPoint x="-460" y="100" as="sourcePoint"/>
                        <mxPoint x="-300" y="100" as="targetPoint"/>
                    </mxGeometry>
                </mxCell>
                <mxCell id="172" value="N" style="resizable=0;html=1;align=right;verticalAlign=bottom;" connectable="0" vertex="1" parent="171">
                    <mxGeometry x="1" relative="1" as="geometry"/>
                </mxCell>
                <mxCell id="173" value="" style="endArrow=none;html=1;rounded=0;exitX=1;exitY=0.5;exitDx=0;exitDy=0;entryX=0;entryY=0.5;entryDx=0;entryDy=0;" edge="1" parent="1" source="150" target="169">
                    <mxGeometry relative="1" as="geometry">
                        <mxPoint x="-480" y="90" as="sourcePoint"/>
                        <mxPoint x="-320" y="90" as="targetPoint"/>
                    </mxGeometry>
                </mxCell>
                <mxCell id="174" value="1" style="resizable=0;html=1;align=right;verticalAlign=bottom;" connectable="0" vertex="1" parent="173">
                    <mxGeometry x="1" relative="1" as="geometry"/>
                </mxCell>
                <mxCell id="176" value="" style="shape=link;html=1;rounded=0;exitX=0;exitY=0.5;exitDx=0;exitDy=0;entryX=1;entryY=0.5;entryDx=0;entryDy=0;" edge="1" parent="1" source="181" target="179">
                    <mxGeometry relative="1" as="geometry">
                        <mxPoint x="-110" y="360" as="sourcePoint"/>
                        <mxPoint x="-180" y="310" as="targetPoint"/>
                    </mxGeometry>
                </mxCell>
                <mxCell id="177" value="N" style="resizable=0;html=1;align=right;verticalAlign=bottom;" connectable="0" vertex="1" parent="176">
                    <mxGeometry x="1" relative="1" as="geometry"/>
                </mxCell>
                <mxCell id="178" value="N" style="edgeLabel;html=1;align=center;verticalAlign=middle;resizable=0;points=[];" vertex="1" connectable="0" parent="176">
                    <mxGeometry x="0.1719" y="-1" relative="1" as="geometry">
                        <mxPoint as="offset"/>
                    </mxGeometry>
                </mxCell>
                <mxCell id="179" value="toppinbdessert" style="shape=ext;margin=3;double=1;whiteSpace=wrap;html=1;align=center;" vertex="1" parent="1">
                    <mxGeometry x="-230" y="120" width="100" height="40" as="geometry"/>
                </mxCell>
                <mxCell id="180" value="has" style="shape=rhombus;double=1;perimeter=rhombusPerimeter;whiteSpace=wrap;html=1;align=center;" vertex="1" parent="1">
                    <mxGeometry x="-280" y="200" width="120" height="60" as="geometry"/>
                </mxCell>
                <mxCell id="181" value="has" style="shape=rhombus;double=1;perimeter=rhombusPerimeter;whiteSpace=wrap;html=1;align=center;" vertex="1" parent="1">
                    <mxGeometry x="-90" y="130" width="120" height="60" as="geometry"/>
                </mxCell>
                <mxCell id="182" value="" style="shape=link;html=1;rounded=0;exitX=0.5;exitY=0;exitDx=0;exitDy=0;entryX=0;entryY=1;entryDx=0;entryDy=0;" edge="1" parent="1" source="180" target="179">
                    <mxGeometry relative="1" as="geometry">
                        <mxPoint x="-430" y="380" as="sourcePoint"/>
                        <mxPoint x="-270" y="380" as="targetPoint"/>
                    </mxGeometry>
                </mxCell>
                <mxCell id="183" value="N" style="resizable=0;html=1;align=right;verticalAlign=bottom;" connectable="0" vertex="1" parent="182">
                    <mxGeometry x="1" relative="1" as="geometry"/>
                </mxCell>
                <mxCell id="184" value="1" style="resizable=0;html=1;align=right;verticalAlign=bottom;" connectable="0" vertex="1" parent="1">
                    <mxGeometry x="-310.2654103086725" y="339.8407538147966" as="geometry">
                        <mxPoint x="25" y="-131" as="offset"/>
                    </mxGeometry>
                </mxCell>
            </root>
        </mxGraphModel>
    </diagram>
</mxfile>